<svg id="SvgjsSvg1006" width="431" height="280" xmlns="http://www.w3.org/2000/svg" version="1.1" xmlns:xlink="http://www.w3.org/1999/xlink" xmlns:svgjs="http://svgjs.com/svgjs"><defs id="SvgjsDefs1007"><marker id="SvgjsMarker1026" markerWidth="16" markerHeight="12" refX="16" refY="6" viewBox="0 0 16 12" orient="auto" markerUnits="userSpaceOnUse"><path id="SvgjsPath1027" d="M0,2 L14,6 L0,11 L0,2" fill="#323232" stroke="#323232" stroke-width="2"></path></marker><marker id="SvgjsMarker1038" markerWidth="16" markerHeight="12" refX="16" refY="6" viewBox="0 0 16 12" orient="auto" markerUnits="userSpaceOnUse"><path id="SvgjsPath1039" d="M0,2 L14,6 L0,11 L0,2" fill="#323232" stroke="#323232" stroke-width="2"></path></marker></defs><g id="SvgjsG1008" transform="translate(25,25)"><path id="SvgjsPath1009" d="M 0 4Q 0 0 4 0L 377 0Q 381 0 381 4L 381 42Q 381 46 377 46L 4 46Q 0 46 0 42Z" stroke="#323232" stroke-width="2" fill-opacity="1" fill="#ffffff"></path><g id="SvgjsG1010"><text id="SvgjsText1011" font-family="微软雅黑" text-anchor="middle" font-size="13px" width="186" fill="#323232" font-weight="400" align="middle" anchor="middle" family="微软雅黑" size="13px" weight="400" font-style="" y="5.05" transform="rotate(0)"><tspan id="SvgjsTspan1012" dy="16" x="190.5"><tspan id="SvgjsTspan1013" style="text-decoration:;">Initialization（初始化阶段）</tspan></tspan><tspan id="SvgjsTspan1014" dy="16" x="190.5"><tspan id="SvgjsTspan1015" style="text-decoration:;">解析构建工程中所有Project对象</tspan></tspan></text></g></g><g id="SvgjsG1016" transform="translate(25,118)"><path id="SvgjsPath1017" d="M 0 4Q 0 0 4 0L 377 0Q 381 0 381 4L 381 42Q 381 46 377 46L 4 46Q 0 46 0 42Z" stroke="#323232" stroke-width="2" fill-opacity="1" fill="#ffffff"></path><g id="SvgjsG1018"><text id="SvgjsText1019" font-family="微软雅黑" text-anchor="middle" font-size="13px" width="348" fill="#323232" font-weight="400" align="middle" anchor="middle" family="微软雅黑" size="13px" weight="400" font-style="" y="5.05" transform="rotate(0)"><tspan id="SvgjsTspan1020" dy="16" x="190.5"><tspan id="SvgjsTspan1021" style="text-decoration:;">Configuration（配置阶段）</tspan></tspan><tspan id="SvgjsTspan1022" dy="16" x="190.5"><tspan id="SvgjsTspan1023" style="text-decoration:;">解析所有Project中的Tash任务，并构建好Tash任务的拓扑图</tspan></tspan></text></g></g><g id="SvgjsG1024"><path id="SvgjsPath1025" d="M215.5 71L215.5 94.5L215.5 94.5L215.5 118" stroke="#323232" stroke-width="2" fill="none" marker-end="url(#SvgjsMarker1026)"></path></g><g id="SvgjsG1028" transform="translate(25,209)"><path id="SvgjsPath1029" d="M 0 4Q 0 0 4 0L 377 0Q 381 0 381 4L 381 42Q 381 46 377 46L 4 46Q 0 46 0 42Z" stroke="#323232" stroke-width="2" fill-opacity="1" fill="#ffffff"></path><g id="SvgjsG1030"><text id="SvgjsText1031" font-family="微软雅黑" text-anchor="middle" font-size="13px" width="211" fill="#323232" font-weight="400" align="middle" anchor="middle" family="微软雅黑" size="13px" weight="400" font-style="" y="5.05" transform="rotate(0)"><tspan id="SvgjsTspan1032" dy="16" x="190.5"><tspan id="SvgjsTspan1033" style="text-decoration:;">Execution（执行阶段）</tspan></tspan><tspan id="SvgjsTspan1034" dy="16" x="190.5"><tspan id="SvgjsTspan1035" style="text-decoration:;">执行具体Task任务和依赖的Task任务</tspan></tspan></text></g></g><g id="SvgjsG1036"><path id="SvgjsPath1037" d="M215.5 164L215.5 186.5L215.5 186.5L215.5 209" stroke="#323232" stroke-width="2" fill="none" marker-end="url(#SvgjsMarker1038)"></path></g></svg>